<?xml version="1.0" encoding="UTF-8" standalone="no"?>
<svg width="805px" height="120px" viewBox="0 0 805 120" version="1.1" xmlns="http://www.w3.org/2000/svg" xmlns:xlink="http://www.w3.org/1999/xlink" xmlns:sketch="http://www.bohemiancoding.com/sketch/ns">
    <!-- Generator: Sketch 3.3 (11970) - http://www.bohemiancoding.com/sketch -->
    <title>logo-ciudad_abierta-claim</title>
    <desc>Created with Sketch.</desc>
    <defs>
        <filter x="-50%" y="-50%" width="200%" height="200%" filterUnits="objectBoundingBox" id="filter-1">
            <feOffset dx="0" dy="2" in="SourceAlpha" result="shadowOffsetOuter1"></feOffset>
            <feGaussianBlur stdDeviation="1" in="shadowOffsetOuter1" result="shadowBlurOuter1"></feGaussianBlur>
            <feColorMatrix values="0 0 0 0 0   0 0 0 0 0   0 0 0 0 0  0 0 0 0.35 0" in="shadowBlurOuter1" type="matrix" result="shadowMatrixOuter1"></feColorMatrix>
            <feMerge>
                <feMergeNode in="shadowMatrixOuter1"></feMergeNode>
                <feMergeNode in="SourceGraphic"></feMergeNode>
            </feMerge>
        </filter>
    </defs>
    <g id="Website" stroke="none" stroke-width="1" fill="none" fill-rule="evenodd" sketch:type="MSPage">
        <g id="logo-ciudad_abierta-claim" sketch:type="MSLayerGroup">
            <g id="logo-ciudad_abierta-copy" fill="#FFFFFF" sketch:type="MSShapeGroup">
                <path d="M49.2040167,63.2192832 C48.4719475,63.9961839 47.2850986,63.9961839 46.5530294,63.2192832 C46.186679,62.8294888 46.0047671,62.3193957 46.0047671,61.8126629 L46.0047671,54.3514595 C46.0047671,53.4273778 45.30049,52.6780316 44.4250389,52.6780316 C44.152171,52.6780316 43.8881461,52.7533022 43.6626511,52.88637 C43.3221979,53.1088217 42.9729017,53.3144718 42.6097095,53.5026485 L41.224526,54.2177197 C37.5862876,55.885099 33.5684343,56.8058204 29.3516149,56.8058204 L7.50639333,56.8058204 C3.35968581,56.8058204 0,53.2291203 0,48.8170504 L0,8.81674721 C0,4.40467728 3.35968581,0.828649235 7.50639333,0.828649235 L27.7156709,0.828649235 C32.135878,0.828649235 36.2996397,1.98526345 39.9618804,4.02832402 L39.9618804,4.02496372 C44.106693,6.31130978 46.9408555,10.9149166 46.9408555,16.2235138 C46.9408555,20.8062868 44.8324458,24.8655256 41.5832968,27.3608821 C44.8596063,28.7191141 47.5131201,31.4093679 48.9513612,34.804612 L63.0185849,5.90404179 C64.6703199,2.40261234 68.0685356,0 72.0011177,0 C75.9305415,0 79.3338104,2.40261234 80.9842821,5.90404179 L80.979229,5.90740209 L100.175358,45.3431753 L100.178516,45.3431753 C100.796259,46.4997896 101.146818,47.8418922 101.146818,49.2727066 C101.146818,53.6807442 97.7883959,57.2574443 93.6416884,57.2574443 C90.5971902,57.2574443 87.9803114,55.3340103 86.7966207,52.5610933 C86.1883527,51.0449273 84.7734822,49.9770249 83.1198523,49.9770249 L62.3010434,49.9770249 C61.8986896,49.9770249 61.4969675,50.1383191 61.1912544,50.4669562 L49.2040167,63.2192832" id="Imported-Layers"></path>
                <g id="Ciudad" transform="translate(135.508650, 8.813571)">
                    <path d="M0.0248529949,23.4042846 L0.0248529949,23.2779374 C0.0248529949,10.7043782 8.93222078,0.40574004 21.7001638,0.40574004 C27.9357002,0.40574004 32.151888,2.17392831 35.596845,4.89106445 C36.5461979,5.64914744 37.3774343,7.03963833 37.3774343,8.74532508 C37.3774343,11.3992876 35.3587173,13.4840159 32.8643764,13.4840159 C31.6175217,13.4840159 30.7862853,12.9792993 30.133171,12.5370842 C27.5794561,10.5148575 24.9076247,9.37773297 21.6407898,9.37773297 C14.6333909,9.37773297 9.58596675,15.5694162 9.58596675,23.1522623 L9.58596675,23.2779374 C9.58596675,30.8601115 14.5152745,37.178814 21.6407898,37.178814 C25.5007334,37.178814 28.0550799,35.9153423 30.6675373,33.7029228 C31.3800256,33.071187 32.3300101,32.6296439 33.3987426,32.6296439 C35.7155931,32.6296439 37.6749361,34.6511986 37.6749361,37.1156404 C37.6749361,38.6318064 36.9624477,39.8327765 36.1305797,40.5908595 C32.3893841,44.0660787 27.9950743,46.1508069 21.3439196,46.1508069 C9.11034287,46.1508069 0.0248529949,36.104191 0.0248529949,23.4042846" id="Fill-1"></path>
                    <path d="M57.9827493,5.64914744 C57.9827493,2.93201131 60.0014663,0.78410948 62.5551812,0.78410948 C65.1082645,0.78410948 67.1276132,2.93201131 67.1276132,5.64914744 L67.1276132,40.9067274 C67.1276132,43.6231915 65.1082645,45.7724375 62.5551812,45.7724375 C60.0014663,45.7724375 57.9827493,43.6231915 57.9827493,40.9067274 L57.9827493,5.64914744" id="Fill-2"></path>
                    <path d="M88.7422867,26.4372887 L88.7422867,5.64914744 C88.7422867,2.93201131 90.762267,0.78410948 93.3153503,0.78410948 C95.8690652,0.78410948 97.8877822,2.93201131 97.8877822,5.64914744 L97.8877822,26.1845943 C97.8877822,33.3877269 101.272734,37.1156404 106.854524,37.1156404 C112.436946,37.1156404 115.821266,33.5140741 115.821266,26.5004622 L115.821266,5.64914744 C115.821266,2.93201131 117.841246,0.78410948 120.394329,0.78410948 C122.948676,0.78410948 124.966761,2.93201131 124.966761,5.64914744 L124.966761,26.1214207 C124.966761,39.5162366 117.90062,46.0876333 106.735776,46.0876333 C95.5721951,46.0876333 88.7422867,39.453063 88.7422867,26.4372887" id="Fill-3"></path>
                    <path d="M162.377453,1.16382304 L150.737617,1.16382304 C148.656999,1.16382304 146.931994,2.59060513 146.364151,4.58930978 C147.062112,4.64979512 147.749966,5.14980731 147.813762,6.09741106 C147.917351,7.63777119 150.452748,8.03025388 151.586539,8.30243794 C153.579991,8.78027217 155.563336,8.99869147 157.602897,9.05917682 C158.25159,9.07866654 158.67542,9.4583801 158.884492,9.94629522 L162.377453,9.94629522 C169.860476,9.94629522 174.907269,15.443069 174.907269,23.2779374 L174.907269,23.4042846 C174.907269,31.2398251 169.860476,36.6102517 162.377453,36.6102517 L155.310681,36.6102517 L155.310681,27.4117748 C152.268709,28.0918989 149.220421,27.956815 146.165185,27.5240087 L146.165185,40.5276859 C146.165185,43.2448221 148.185165,45.3927239 150.737617,45.3927239 L162.377453,45.3927239 C175.442267,45.3927239 184.468382,35.7251495 184.468382,23.2779374 L184.468382,23.1522623 C184.468382,10.7043782 175.442267,1.16382304 162.377453,1.16382304" id="Fill-4"></path>
                    <path d="M200.382517,39.1378671 L214.871676,4.32317426 C215.881666,1.92190604 217.722261,0.468913624 220.217233,0.468913624 L220.750336,0.468913624 C223.245941,0.468913624 225.02653,1.92190604 226.03652,4.32317426 L240.525678,39.1378671 C240.822548,39.8327765 241.001302,40.4638403 241.001302,41.0955761 C241.001302,43.6863651 239.100701,45.7724375 236.666366,45.7724375 C234.527638,45.7724375 233.102661,44.4444481 232.272056,42.4235655 L229.480214,35.4724552 L211.190486,35.4724552 L208.280527,42.7387614 C207.508033,44.6346409 205.964308,45.7724375 204.063707,45.7724375 C201.688746,45.7724375 199.84752,43.7495387 199.84752,41.2225954 C199.84752,40.5276859 200.085647,39.8327765 200.382517,39.1378671 L200.382517,39.1378671 Z M226.095894,26.8795037 L220.33535,12.2837178 L214.575437,26.8795037 L226.095894,26.8795037 L226.095894,26.8795037 Z" id="Fill-5"></path>
                    <path d="M260.061629,21.972126 C260.061629,24.5777003 262.065818,26.7108168 264.515313,26.7108168 L264.752809,26.7108168 C267.202304,26.7108168 269.206493,24.5777003 269.206493,21.972126 L269.206493,14.684986 C269.206493,12.0787397 267.202304,9.94629522 264.752809,9.94629522 L264.515313,9.94629522 C262.065818,9.94629522 260.061629,12.0787397 260.061629,14.684986 L260.061629,21.972126" id="Fill-14"></path>
                    <path d="M276.273266,1.16382304 L264.634061,1.16382304 C262.080978,1.16382304 260.061629,3.31172487 260.061629,6.028861 L260.061629,19.2469252 C263.047385,18.9599558 266.24095,19.1145295 269.206493,19.6877962 L269.206493,9.94629522 L276.273266,9.94629522 C283.756288,9.94629522 288.803081,15.443069 288.803081,23.2779374 L288.803081,23.4042846 C288.803081,31.2398251 283.756288,36.6102517 276.273266,36.6102517 L271.793685,36.6102517 C271.827162,39.5283336 272.047603,42.4706097 271.973702,45.3927239 L276.273266,45.3927239 C289.338079,45.3927239 298.364195,35.7251495 298.364195,23.2779374 L298.364195,23.1522623 C298.364195,10.7043782 289.338079,1.16382304 276.273266,1.16382304" id="Fill-18"></path>
                    <path d="M273.575537,45.3927239 C276.025032,45.3927239 278.029221,43.4168693 278.029221,41.0014878 C278.029221,38.5861064 276.025032,36.6102517 273.575537,36.6102517 L264.515313,36.6102517 C262.065187,36.6102517 260.061629,38.5861064 260.061629,41.0014878 C260.061629,43.4168693 262.065187,45.3927239 264.515313,45.3927239 L273.575537,45.3927239" id="Fill-19"></path>
                    <path d="M146.165185,31.702202 C146.165185,34.3084483 148.169374,36.4408928 150.618869,36.4408928 L150.856997,36.4408928 C153.306491,36.4408928 155.310681,34.3084483 155.310681,31.702202 L155.310681,24.415734 C155.310681,21.8088156 153.306491,19.6763711 150.856997,19.6763711 L150.618869,19.6763711 C148.169374,19.6763711 146.165185,21.8088156 146.165185,24.415734 L146.165185,31.702202" id="Fill-13"></path>
                    <path d="M159.679725,9.94629522 C162.129219,9.94629522 164.133409,7.97044059 164.133409,5.55505913 C164.133409,3.13967766 162.129219,1.16382304 159.679725,1.16382304 L150.618869,1.16382304 C148.169374,1.16382304 146.165185,3.13967766 146.165185,5.55505913 C146.165185,7.97044059 148.169374,9.94629522 150.618869,9.94629522 L159.679725,9.94629522" id="Fill-16"></path>
                </g>
                <g id="Abierta" transform="translate(467.119250, 8.813571)">
                    <path d="M0.919400085,39.1378671 L15.4085583,4.32317426 C16.4185485,1.92190604 18.2591434,0.468913624 20.754116,0.468913624 L21.287219,0.468913624 C23.7821915,0.468913624 25.5634124,1.92190604 26.5734025,4.32317426 L41.0625608,39.1378671 C41.3594309,39.8327765 41.5381847,40.4638403 41.5381847,41.0955761 C41.5381847,43.6863651 39.6375841,45.7724375 37.2032488,45.7724375 C35.0645205,45.7724375 33.6395438,44.4444481 32.808939,42.4235655 L30.0170963,35.4724552 L11.7273685,35.4724552 L8.81740936,42.7387614 C8.04491533,44.6346409 6.50119055,45.7724375 4.60058995,45.7724375 C2.22562875,45.7724375 0.384402175,43.7495387 0.384402175,41.2225954 C0.384402175,40.5276859 0.622529934,39.8327765 0.919400085,39.1378671 L0.919400085,39.1378671 Z M26.6327766,26.8795037 L20.8722324,12.2837178 L15.1123198,26.8795037 L26.6327766,26.8795037 L26.6327766,26.8795037 Z" id="Fill-6"></path>
                    <path d="M60.59788,6.028861 C60.59788,3.31172487 62.6178603,1.16382304 65.1709436,1.16382304 L79.8982296,1.16382304 C84.6494153,1.16382304 88.3906108,2.55364187 90.765572,5.08125725 C92.6661726,7.10281192 93.6161571,9.56658166 93.6161571,12.6002578 L93.6161571,12.7259329 C93.6161571,17.7179901 91.1218162,20.4982998 88.152483,22.2671601 C92.9630427,24.2255412 95.9323759,27.1953717 95.9323759,33.1343605 L95.9323759,33.2613798 C95.9323759,41.3489425 89.7562135,45.3927239 80.3732218,45.3927239 L65.1709436,45.3927239 C62.6178603,45.3927239 60.59788,43.2448221 60.59788,40.5276859 L60.59788,6.028861 L60.59788,6.028861 Z M77.9388866,19.0453074 C81.9763206,19.0453074 84.5306672,17.6541444 84.5306672,14.368446 L84.5306672,14.2427709 C84.5306672,11.336114 82.3925705,9.69360088 78.5326269,9.69360088 L69.5052478,9.69360088 L69.5052478,19.0453074 L77.9388866,19.0453074 L77.9388866,19.0453074 Z M80.3732218,36.8629461 C84.4112875,36.8629461 86.8462544,35.346108 86.8462544,32.0604096 L86.8462544,31.9347345 C86.8462544,28.964232 84.7675317,27.1328701 80.0769833,27.1328701 L69.5052478,27.1328701 L69.5052478,36.8629461 L80.3732218,36.8629461 L80.3732218,36.8629461 Z" id="Fill-7"></path>
                    <path d="M115.764565,5.64914744 C115.764565,2.93201131 117.783282,0.78410948 120.336997,0.78410948 C122.890712,0.78410948 124.909429,2.93201131 124.909429,5.64914744 L124.909429,40.9067274 C124.909429,43.6231915 122.890712,45.7724375 120.336997,45.7724375 C117.783282,45.7724375 115.764565,43.6231915 115.764565,40.9067274 L115.764565,5.64914744" id="Fill-8"></path>
                    <path d="M147.177217,40.5276859 L147.177217,6.028861 C147.177217,3.31172487 149.197197,1.16382304 151.750281,1.16382304 L174.791194,1.16382304 C177.048039,1.16382304 178.889265,3.12220412 178.889265,5.52280028 C178.889265,7.9240685 177.048039,9.81994805 174.791194,9.81994805 L156.263338,9.81994805 L156.263338,18.791941 L172.119363,18.791941 C174.376207,18.791941 176.216802,20.7503221 176.216802,23.1522623 C176.216802,25.5528585 174.376207,27.448066 172.119363,27.448066 L156.263338,27.448066 L156.263338,36.7365989 L175.088696,36.7365989 C177.345541,36.7365989 179.185504,38.69498 179.185504,41.0955761 C179.185504,43.4968444 177.345541,45.3927239 175.088696,45.3927239 L151.750281,45.3927239 C149.197197,45.3927239 147.177217,43.2448221 147.177217,40.5276859" id="Fill-9"></path>
                    <path d="M263.331137,10.135816 L254.541254,10.135816 C252.225667,10.135816 250.325698,8.11358925 250.325698,5.64914744 C250.325698,3.1853777 252.225667,1.16382304 254.541254,1.16382304 L281.264621,1.16382304 C283.58084,1.16382304 285.48144,3.1853777 285.48144,5.64914744 C285.48144,8.11358925 283.58084,10.135816 281.264621,10.135816 L272.476001,10.135816 L272.476001,40.9067274 C272.476001,43.6231915 270.456653,45.7724375 267.903569,45.7724375 C265.349854,45.7724375 263.331137,43.6231915 263.331137,40.9067274 L263.331137,10.135816" id="Fill-10"></path>
                    <path d="M297.237498,39.1378671 L311.727288,4.32317426 C312.737278,1.92190604 314.578505,0.468913624 317.072214,0.468913624 L317.60658,0.468913624 C320.10029,0.468913624 321.882142,1.92190604 322.892132,4.32317426 L337.381922,39.1378671 C337.678161,39.8327765 337.856283,40.4638403 337.856283,41.0955761 C337.856283,43.6863651 335.956946,45.7724375 333.521979,45.7724375 C331.383882,45.7724375 329.958274,44.4444481 329.127669,42.4235655 L326.335826,35.4724552 L308.045467,35.4724552 L305.136139,42.7387614 C304.363645,44.6346409 302.81992,45.7724375 300.919951,45.7724375 C298.544359,45.7724375 296.703132,43.7495387 296.703132,41.2225954 C296.703132,40.5276859 296.94126,39.8327765 297.237498,39.1378671 L297.237498,39.1378671 Z M322.951506,26.8795037 L317.190962,12.2837178 L311.43105,26.8795037 L322.951506,26.8795037 L322.951506,26.8795037 Z" id="Fill-11"></path>
                    <path d="M233.520953,15.8852841 L233.520953,15.759609 C233.520953,11.5888084 232.273466,8.11358925 229.957879,5.64914744 C227.226042,2.74316262 223.128603,1.16382304 217.843051,1.16382304 L207.01108,1.16382304 C207.172779,4.11954026 207.492389,7.01678831 207.836,9.94629522 L217.071188,9.94629522 C221.525504,9.94629522 224.257341,12.094197 224.257341,16.2643256 L224.257341,16.3913448 C224.257341,20.1185862 221.702994,22.6462016 217.249942,22.6462016 L203.86173,22.6462016 C203.870573,23.0615343 203.736665,23.4741788 203.429057,23.7503952 C202.245998,24.8109049 201.026936,25.8263867 199.903251,26.9588068 C199.570377,27.2941644 199.197079,27.4171513 198.840203,27.3969895 L198.840203,40.9067274 C198.840203,43.6231915 200.860183,45.7724375 203.413266,45.7724375 C205.966981,45.7724375 207.985698,43.6231915 207.985698,40.9067274 L207.985698,31.2398251 L215.289967,31.2398251 L224.197967,43.2448221 C225.266699,44.6978145 226.632302,45.7724375 228.711025,45.7724375 C230.907864,45.7724375 233.04596,44.0029051 233.04596,41.2857689 C233.04596,39.7689309 232.45222,38.7581536 231.560978,37.5578555 L225.207325,29.3439455 C230.254749,27.1328701 233.520953,22.8357224 233.520953,15.8852841" id="Fill-12"></path>
                    <path d="M198.840203,34.6767368 C198.840203,37.2836552 200.844392,39.4154276 203.293887,39.4154276 L203.532014,39.4154276 C205.981509,39.4154276 207.985698,37.2836552 207.985698,34.6767368 L207.985698,27.3902689 C207.985698,24.7840225 205.981509,22.6515781 203.532014,22.6515781 L203.293887,22.6515781 C200.844392,22.6515781 198.840203,24.7840225 198.840203,27.3902689 L198.840203,34.6767368" id="Fill-15"></path>
                    <path d="M212.354743,9.94629522 C214.804237,9.94629522 216.808427,7.97044059 216.808427,5.55505913 C216.808427,3.13967766 214.804237,1.16382304 212.354743,1.16382304 L203.293887,1.16382304 C200.844392,1.16382304 198.840203,3.13967766 198.840203,5.55505913 C198.840203,7.97044059 200.844392,9.94629522 203.293887,9.94629522 L212.354743,9.94629522" id="Fill-17"></path>
                </g>
            </g>
            <text id="Claim" fill="white" filter="url(#filter-1)" sketch:type="MSTextLayer" font-family="Gotham Rounded" font-size="17" font-weight="bold" sketch:alignment="middle">
                <tspan x="238.610781" y="116" fill="#FFFFFF">MARATÓN DE INNOVACIÓN PÚBLICA</tspan>
            </text>
        </g>
    </g>
</svg>