<?xml version="1.0" encoding="UTF-8" standalone="no"?>
<svg width="805px" height="121px" viewBox="0 0 805 121" version="1.1" xmlns="http://www.w3.org/2000/svg" xmlns:xlink="http://www.w3.org/1999/xlink" xmlns:sketch="http://www.bohemiancoding.com/sketch/ns">
    <!-- Generator: Sketch 3.3 (11970) - http://www.bohemiancoding.com/sketch -->
    <title>logo-ciudad_abierta-claim</title>
    <desc>Created with Sketch.</desc>
    <defs>
        <filter x="-50%" y="-50%" width="200%" height="200%" filterUnits="objectBoundingBox" id="filter-1">
            <feOffset dx="0" dy="2" in="SourceAlpha" result="shadowOffsetOuter1"></feOffset>
            <feGaussianBlur stdDeviation="1" in="shadowOffsetOuter1" result="shadowBlurOuter1"></feGaussianBlur>
            <feColorMatrix values="0 0 0 0 0   0 0 0 0 0   0 0 0 0 0  0 0 0 0.35 0" in="shadowBlurOuter1" type="matrix" result="shadowMatrixOuter1"></feColorMatrix>
            <feMerge>
                <feMergeNode in="shadowMatrixOuter1"></feMergeNode>
                <feMergeNode in="SourceGraphic"></feMergeNode>
            </feMerge>
        </filter>
    </defs>
    <g id="Website" stroke="none" stroke-width="1" fill="none" fill-rule="evenodd" sketch:type="MSPage">
        <g id="logo-ciudad_abierta-claim" sketch:type="MSLayerGroup" fill="#FFFFFF">
            <g id="logo-ciudad_abierta-copy" sketch:type="MSShapeGroup">
                <path d="M49.2040167,63.2192832 C48.4719475,63.9961839 47.2850986,63.9961839 46.5530294,63.2192832 C46.186679,62.8294888 46.0047671,62.3193957 46.0047671,61.8126629 L46.0047671,54.3514595 C46.0047671,53.4273778 45.30049,52.6780316 44.4250389,52.6780316 C44.152171,52.6780316 43.8881461,52.7533022 43.6626511,52.88637 C43.3221979,53.1088217 42.9729017,53.3144718 42.6097095,53.5026485 L41.224526,54.2177197 C37.5862876,55.885099 33.5684343,56.8058204 29.3516149,56.8058204 L7.50639333,56.8058204 C3.35968581,56.8058204 0,53.2291203 0,48.8170504 L0,8.81674721 C0,4.40467728 3.35968581,0.828649235 7.50639333,0.828649235 L27.7156709,0.828649235 C32.135878,0.828649235 36.2996397,1.98526345 39.9618804,4.02832402 L39.9618804,4.02496372 C44.106693,6.31130978 46.9408555,10.9149166 46.9408555,16.2235138 C46.9408555,20.8062868 44.8324458,24.8655256 41.5832968,27.3608821 C44.8596063,28.7191141 47.5131201,31.4093679 48.9513612,34.804612 L63.0185849,5.90404179 C64.6703199,2.40261234 68.0685356,0 72.0011177,0 C75.9305415,0 79.3338104,2.40261234 80.9842821,5.90404179 L80.979229,5.90740209 L100.175358,45.3431753 L100.178516,45.3431753 C100.796259,46.4997896 101.146818,47.8418922 101.146818,49.2727066 C101.146818,53.6807442 97.7883959,57.2574443 93.6416884,57.2574443 C90.5971902,57.2574443 87.9803114,55.3340103 86.7966207,52.5610933 C86.1883527,51.0449273 84.7734822,49.9770249 83.1198523,49.9770249 L62.3010434,49.9770249 C61.8986896,49.9770249 61.4969675,50.1383191 61.1912544,50.4669562 L49.2040167,63.2192832" id="Imported-Layers"></path>
                <g id="Ciudad" transform="translate(135.508650, 8.813571)">
                    <path d="M0.0248529949,23.4042846 L0.0248529949,23.2779374 C0.0248529949,10.7043782 8.93222078,0.40574004 21.7001638,0.40574004 C27.9357002,0.40574004 32.151888,2.17392831 35.596845,4.89106445 C36.5461979,5.64914744 37.3774343,7.03963833 37.3774343,8.74532508 C37.3774343,11.3992876 35.3587173,13.4840159 32.8643764,13.4840159 C31.6175217,13.4840159 30.7862853,12.9792993 30.133171,12.5370842 C27.5794561,10.5148575 24.9076247,9.37773297 21.6407898,9.37773297 C14.6333909,9.37773297 9.58596675,15.5694162 9.58596675,23.1522623 L9.58596675,23.2779374 C9.58596675,30.8601115 14.5152745,37.178814 21.6407898,37.178814 C25.5007334,37.178814 28.0550799,35.9153423 30.6675373,33.7029228 C31.3800256,33.071187 32.3300101,32.6296439 33.3987426,32.6296439 C35.7155931,32.6296439 37.6749361,34.6511986 37.6749361,37.1156404 C37.6749361,38.6318064 36.9624477,39.8327765 36.1305797,40.5908595 C32.3893841,44.0660787 27.9950743,46.1508069 21.3439196,46.1508069 C9.11034287,46.1508069 0.0248529949,36.104191 0.0248529949,23.4042846" id="Fill-1"></path>
                    <path d="M57.9827493,5.64914744 C57.9827493,2.93201131 60.0014663,0.78410948 62.5551812,0.78410948 C65.1082645,0.78410948 67.1276132,2.93201131 67.1276132,5.64914744 L67.1276132,40.9067274 C67.1276132,43.6231915 65.1082645,45.7724375 62.5551812,45.7724375 C60.0014663,45.7724375 57.9827493,43.6231915 57.9827493,40.9067274 L57.9827493,5.64914744" id="Fill-2"></path>
                    <path d="M88.7422867,26.4372887 L88.7422867,5.64914744 C88.7422867,2.93201131 90.762267,0.78410948 93.3153503,0.78410948 C95.8690652,0.78410948 97.8877822,2.93201131 97.8877822,5.64914744 L97.8877822,26.1845943 C97.8877822,33.3877269 101.272734,37.1156404 106.854524,37.1156404 C112.436946,37.1156404 115.821266,33.5140741 115.821266,26.5004622 L115.821266,5.64914744 C115.821266,2.93201131 117.841246,0.78410948 120.394329,0.78410948 C122.948676,0.78410948 124.966761,2.93201131 124.966761,5.64914744 L124.966761,26.1214207 C124.966761,39.5162366 117.90062,46.0876333 106.735776,46.0876333 C95.5721951,46.0876333 88.7422867,39.453063 88.7422867,26.4372887" id="Fill-3"></path>
                    <path d="M162.377453,1.16382304 L150.737617,1.16382304 C148.656999,1.16382304 146.931994,2.59060513 146.364151,4.58930978 C147.062112,4.64979512 147.749966,5.14980731 147.813762,6.09741106 C147.917351,7.63777119 150.452748,8.03025388 151.586539,8.30243794 C153.579991,8.78027217 155.563336,8.99869147 157.602897,9.05917682 C158.25159,9.07866654 158.67542,9.4583801 158.884492,9.94629522 L162.377453,9.94629522 C169.860476,9.94629522 174.907269,15.443069 174.907269,23.2779374 L174.907269,23.4042846 C174.907269,31.2398251 169.860476,36.6102517 162.377453,36.6102517 L155.310681,36.6102517 L155.310681,27.4117748 C152.268709,28.0918989 149.220421,27.956815 146.165185,27.5240087 L146.165185,40.5276859 C146.165185,43.2448221 148.185165,45.3927239 150.737617,45.3927239 L162.377453,45.3927239 C175.442267,45.3927239 184.468382,35.7251495 184.468382,23.2779374 L184.468382,23.1522623 C184.468382,10.7043782 175.442267,1.16382304 162.377453,1.16382304" id="Fill-4"></path>
                    <path d="M200.382517,39.1378671 L214.871676,4.32317426 C215.881666,1.92190604 217.722261,0.468913624 220.217233,0.468913624 L220.750336,0.468913624 C223.245941,0.468913624 225.02653,1.92190604 226.03652,4.32317426 L240.525678,39.1378671 C240.822548,39.8327765 241.001302,40.4638403 241.001302,41.0955761 C241.001302,43.6863651 239.100701,45.7724375 236.666366,45.7724375 C234.527638,45.7724375 233.102661,44.4444481 232.272056,42.4235655 L229.480214,35.4724552 L211.190486,35.4724552 L208.280527,42.7387614 C207.508033,44.6346409 205.964308,45.7724375 204.063707,45.7724375 C201.688746,45.7724375 199.84752,43.7495387 199.84752,41.2225954 C199.84752,40.5276859 200.085647,39.8327765 200.382517,39.1378671 L200.382517,39.1378671 Z M226.095894,26.8795037 L220.33535,12.2837178 L214.575437,26.8795037 L226.095894,26.8795037 L226.095894,26.8795037 Z" id="Fill-5"></path>
                    <path d="M260.061629,21.972126 C260.061629,24.5777003 262.065818,26.7108168 264.515313,26.7108168 L264.752809,26.7108168 C267.202304,26.7108168 269.206493,24.5777003 269.206493,21.972126 L269.206493,14.684986 C269.206493,12.0787397 267.202304,9.94629522 264.752809,9.94629522 L264.515313,9.94629522 C262.065818,9.94629522 260.061629,12.0787397 260.061629,14.684986 L260.061629,21.972126" id="Fill-14"></path>
                    <path d="M276.273266,1.16382304 L264.634061,1.16382304 C262.080978,1.16382304 260.061629,3.31172487 260.061629,6.028861 L260.061629,19.2469252 C263.047385,18.9599558 266.24095,19.1145295 269.206493,19.6877962 L269.206493,9.94629522 L276.273266,9.94629522 C283.756288,9.94629522 288.803081,15.443069 288.803081,23.2779374 L288.803081,23.4042846 C288.803081,31.2398251 283.756288,36.6102517 276.273266,36.6102517 L271.793685,36.6102517 C271.827162,39.5283336 272.047603,42.4706097 271.973702,45.3927239 L276.273266,45.3927239 C289.338079,45.3927239 298.364195,35.7251495 298.364195,23.2779374 L298.364195,23.1522623 C298.364195,10.7043782 289.338079,1.16382304 276.273266,1.16382304" id="Fill-18"></path>
                    <path d="M273.575537,45.3927239 C276.025032,45.3927239 278.029221,43.4168693 278.029221,41.0014878 C278.029221,38.5861064 276.025032,36.6102517 273.575537,36.6102517 L264.515313,36.6102517 C262.065187,36.6102517 260.061629,38.5861064 260.061629,41.0014878 C260.061629,43.4168693 262.065187,45.3927239 264.515313,45.3927239 L273.575537,45.3927239" id="Fill-19"></path>
                    <path d="M146.165185,31.702202 C146.165185,34.3084483 148.169374,36.4408928 150.618869,36.4408928 L150.856997,36.4408928 C153.306491,36.4408928 155.310681,34.3084483 155.310681,31.702202 L155.310681,24.415734 C155.310681,21.8088156 153.306491,19.6763711 150.856997,19.6763711 L150.618869,19.6763711 C148.169374,19.6763711 146.165185,21.8088156 146.165185,24.415734 L146.165185,31.702202" id="Fill-13"></path>
                    <path d="M159.679725,9.94629522 C162.129219,9.94629522 164.133409,7.97044059 164.133409,5.55505913 C164.133409,3.13967766 162.129219,1.16382304 159.679725,1.16382304 L150.618869,1.16382304 C148.169374,1.16382304 146.165185,3.13967766 146.165185,5.55505913 C146.165185,7.97044059 148.169374,9.94629522 150.618869,9.94629522 L159.679725,9.94629522" id="Fill-16"></path>
                </g>
                <g id="Abierta" transform="translate(467.119250, 8.813571)">
                    <path d="M0.919400085,39.1378671 L15.4085583,4.32317426 C16.4185485,1.92190604 18.2591434,0.468913624 20.754116,0.468913624 L21.287219,0.468913624 C23.7821915,0.468913624 25.5634124,1.92190604 26.5734025,4.32317426 L41.0625608,39.1378671 C41.3594309,39.8327765 41.5381847,40.4638403 41.5381847,41.0955761 C41.5381847,43.6863651 39.6375841,45.7724375 37.2032488,45.7724375 C35.0645205,45.7724375 33.6395438,44.4444481 32.808939,42.4235655 L30.0170963,35.4724552 L11.7273685,35.4724552 L8.81740936,42.7387614 C8.04491533,44.6346409 6.50119055,45.7724375 4.60058995,45.7724375 C2.22562875,45.7724375 0.384402175,43.7495387 0.384402175,41.2225954 C0.384402175,40.5276859 0.622529934,39.8327765 0.919400085,39.1378671 L0.919400085,39.1378671 Z M26.6327766,26.8795037 L20.8722324,12.2837178 L15.1123198,26.8795037 L26.6327766,26.8795037 L26.6327766,26.8795037 Z" id="Fill-6"></path>
                    <path d="M60.59788,6.028861 C60.59788,3.31172487 62.6178603,1.16382304 65.1709436,1.16382304 L79.8982296,1.16382304 C84.6494153,1.16382304 88.3906108,2.55364187 90.765572,5.08125725 C92.6661726,7.10281192 93.6161571,9.56658166 93.6161571,12.6002578 L93.6161571,12.7259329 C93.6161571,17.7179901 91.1218162,20.4982998 88.152483,22.2671601 C92.9630427,24.2255412 95.9323759,27.1953717 95.9323759,33.1343605 L95.9323759,33.2613798 C95.9323759,41.3489425 89.7562135,45.3927239 80.3732218,45.3927239 L65.1709436,45.3927239 C62.6178603,45.3927239 60.59788,43.2448221 60.59788,40.5276859 L60.59788,6.028861 L60.59788,6.028861 Z M77.9388866,19.0453074 C81.9763206,19.0453074 84.5306672,17.6541444 84.5306672,14.368446 L84.5306672,14.2427709 C84.5306672,11.336114 82.3925705,9.69360088 78.5326269,9.69360088 L69.5052478,9.69360088 L69.5052478,19.0453074 L77.9388866,19.0453074 L77.9388866,19.0453074 Z M80.3732218,36.8629461 C84.4112875,36.8629461 86.8462544,35.346108 86.8462544,32.0604096 L86.8462544,31.9347345 C86.8462544,28.964232 84.7675317,27.1328701 80.0769833,27.1328701 L69.5052478,27.1328701 L69.5052478,36.8629461 L80.3732218,36.8629461 L80.3732218,36.8629461 Z" id="Fill-7"></path>
                    <path d="M115.764565,5.64914744 C115.764565,2.93201131 117.783282,0.78410948 120.336997,0.78410948 C122.890712,0.78410948 124.909429,2.93201131 124.909429,5.64914744 L124.909429,40.9067274 C124.909429,43.6231915 122.890712,45.7724375 120.336997,45.7724375 C117.783282,45.7724375 115.764565,43.6231915 115.764565,40.9067274 L115.764565,5.64914744" id="Fill-8"></path>
                    <path d="M147.177217,40.5276859 L147.177217,6.028861 C147.177217,3.31172487 149.197197,1.16382304 151.750281,1.16382304 L174.791194,1.16382304 C177.048039,1.16382304 178.889265,3.12220412 178.889265,5.52280028 C178.889265,7.9240685 177.048039,9.81994805 174.791194,9.81994805 L156.263338,9.81994805 L156.263338,18.791941 L172.119363,18.791941 C174.376207,18.791941 176.216802,20.7503221 176.216802,23.1522623 C176.216802,25.5528585 174.376207,27.448066 172.119363,27.448066 L156.263338,27.448066 L156.263338,36.7365989 L175.088696,36.7365989 C177.345541,36.7365989 179.185504,38.69498 179.185504,41.0955761 C179.185504,43.4968444 177.345541,45.3927239 175.088696,45.3927239 L151.750281,45.3927239 C149.197197,45.3927239 147.177217,43.2448221 147.177217,40.5276859" id="Fill-9"></path>
                    <path d="M263.331137,10.135816 L254.541254,10.135816 C252.225667,10.135816 250.325698,8.11358925 250.325698,5.64914744 C250.325698,3.1853777 252.225667,1.16382304 254.541254,1.16382304 L281.264621,1.16382304 C283.58084,1.16382304 285.48144,3.1853777 285.48144,5.64914744 C285.48144,8.11358925 283.58084,10.135816 281.264621,10.135816 L272.476001,10.135816 L272.476001,40.9067274 C272.476001,43.6231915 270.456653,45.7724375 267.903569,45.7724375 C265.349854,45.7724375 263.331137,43.6231915 263.331137,40.9067274 L263.331137,10.135816" id="Fill-10"></path>
                    <path d="M297.237498,39.1378671 L311.727288,4.32317426 C312.737278,1.92190604 314.578505,0.468913624 317.072214,0.468913624 L317.60658,0.468913624 C320.10029,0.468913624 321.882142,1.92190604 322.892132,4.32317426 L337.381922,39.1378671 C337.678161,39.8327765 337.856283,40.4638403 337.856283,41.0955761 C337.856283,43.6863651 335.956946,45.7724375 333.521979,45.7724375 C331.383882,45.7724375 329.958274,44.4444481 329.127669,42.4235655 L326.335826,35.4724552 L308.045467,35.4724552 L305.136139,42.7387614 C304.363645,44.6346409 302.81992,45.7724375 300.919951,45.7724375 C298.544359,45.7724375 296.703132,43.7495387 296.703132,41.2225954 C296.703132,40.5276859 296.94126,39.8327765 297.237498,39.1378671 L297.237498,39.1378671 Z M322.951506,26.8795037 L317.190962,12.2837178 L311.43105,26.8795037 L322.951506,26.8795037 L322.951506,26.8795037 Z" id="Fill-11"></path>
                    <path d="M233.520953,15.8852841 L233.520953,15.759609 C233.520953,11.5888084 232.273466,8.11358925 229.957879,5.64914744 C227.226042,2.74316262 223.128603,1.16382304 217.843051,1.16382304 L207.01108,1.16382304 C207.172779,4.11954026 207.492389,7.01678831 207.836,9.94629522 L217.071188,9.94629522 C221.525504,9.94629522 224.257341,12.094197 224.257341,16.2643256 L224.257341,16.3913448 C224.257341,20.1185862 221.702994,22.6462016 217.249942,22.6462016 L203.86173,22.6462016 C203.870573,23.0615343 203.736665,23.4741788 203.429057,23.7503952 C202.245998,24.8109049 201.026936,25.8263867 199.903251,26.9588068 C199.570377,27.2941644 199.197079,27.4171513 198.840203,27.3969895 L198.840203,40.9067274 C198.840203,43.6231915 200.860183,45.7724375 203.413266,45.7724375 C205.966981,45.7724375 207.985698,43.6231915 207.985698,40.9067274 L207.985698,31.2398251 L215.289967,31.2398251 L224.197967,43.2448221 C225.266699,44.6978145 226.632302,45.7724375 228.711025,45.7724375 C230.907864,45.7724375 233.04596,44.0029051 233.04596,41.2857689 C233.04596,39.7689309 232.45222,38.7581536 231.560978,37.5578555 L225.207325,29.3439455 C230.254749,27.1328701 233.520953,22.8357224 233.520953,15.8852841" id="Fill-12"></path>
                    <path d="M198.840203,34.6767368 C198.840203,37.2836552 200.844392,39.4154276 203.293887,39.4154276 L203.532014,39.4154276 C205.981509,39.4154276 207.985698,37.2836552 207.985698,34.6767368 L207.985698,27.3902689 C207.985698,24.7840225 205.981509,22.6515781 203.532014,22.6515781 L203.293887,22.6515781 C200.844392,22.6515781 198.840203,24.7840225 198.840203,27.3902689 L198.840203,34.6767368" id="Fill-15"></path>
                    <path d="M212.354743,9.94629522 C214.804237,9.94629522 216.808427,7.97044059 216.808427,5.55505913 C216.808427,3.13967766 214.804237,1.16382304 212.354743,1.16382304 L203.293887,1.16382304 C200.844392,1.16382304 198.840203,3.13967766 198.840203,5.55505913 C198.840203,7.97044059 200.844392,9.94629522 203.293887,9.94629522 L212.354743,9.94629522" id="Fill-17"></path>
                </g>
            </g>
            <path d="M240.038781,114.827 C240.038781,115.541 240.599781,116.102 241.313781,116.102 C242.027781,116.102 242.605781,115.541 242.605781,114.827 L242.605781,108.911 L244.866781,112.396 C245.138781,112.804 245.478781,113.059 245.954781,113.059 C246.430781,113.059 246.770781,112.804 247.042781,112.396 L249.337781,108.86 L249.337781,114.793 C249.337781,115.507 249.915781,116.102 250.629781,116.102 C251.360781,116.102 251.938781,115.524 251.938781,114.793 L251.938781,105.341 C251.938781,104.61 251.360781,104.032 250.629781,104.032 L250.340781,104.032 C249.813781,104.032 249.439781,104.253 249.167781,104.695 L245.988781,109.863 L242.826781,104.712 C242.588781,104.321 242.197781,104.032 241.636781,104.032 L241.347781,104.032 C240.616781,104.032 240.038781,104.61 240.038781,105.341 L240.038781,114.827 Z M253.978781,114.878 C253.978781,115.558 254.505781,116.102 255.185781,116.102 C255.729781,116.102 256.171781,115.796 256.392781,115.286 L257.225781,113.331 L262.461781,113.331 L263.260781,115.201 C263.498781,115.745 263.906781,116.102 264.518781,116.102 C265.215781,116.102 265.759781,115.541 265.759781,114.844 C265.759781,114.674 265.708781,114.504 265.623781,114.317 L261.475781,104.95 C261.186781,104.304 260.676781,103.913 259.962781,103.913 L259.809781,103.913 C259.095781,103.913 258.568781,104.304 258.279781,104.95 L254.131781,114.317 C254.046781,114.504 253.978781,114.691 253.978781,114.878 L253.978781,114.878 Z M258.194781,111.019 L259.843781,107.092 L261.492781,111.019 L258.194781,111.019 Z M267.816781,114.793 C267.816781,115.524 268.394781,116.102 269.125781,116.102 C269.856781,116.102 270.434781,115.524 270.434781,114.793 L270.434781,112.192 L272.525781,112.192 L275.075781,115.422 C275.381781,115.813 275.772781,116.102 276.367781,116.102 C276.996781,116.102 277.608781,115.626 277.608781,114.895 C277.608781,114.487 277.438781,114.215 277.183781,113.892 L275.364781,111.682 C276.809781,111.087 277.744781,109.931 277.744781,108.061 L277.744781,108.027 C277.744781,106.905 277.387781,105.97 276.724781,105.307 C275.942781,104.525 274.769781,104.1 273.256781,104.1 L269.125781,104.1 C268.394781,104.1 267.816781,104.678 267.816781,105.409 L267.816781,114.793 Z M270.434781,109.88 L270.434781,106.463 L273.035781,106.463 C274.310781,106.463 275.092781,107.041 275.092781,108.163 L275.092781,108.197 C275.092781,109.2 274.361781,109.88 273.086781,109.88 L270.434781,109.88 Z M279.291781,114.878 C279.291781,115.558 279.818781,116.102 280.498781,116.102 C281.042781,116.102 281.484781,115.796 281.705781,115.286 L282.538781,113.331 L287.774781,113.331 L288.573781,115.201 C288.811781,115.745 289.219781,116.102 289.831781,116.102 C290.528781,116.102 291.072781,115.541 291.072781,114.844 C291.072781,114.674 291.021781,114.504 290.936781,114.317 L286.788781,104.95 C286.499781,104.304 285.989781,103.913 285.275781,103.913 L285.122781,103.913 C284.408781,103.913 283.881781,104.304 283.592781,104.95 L279.444781,114.317 C279.359781,114.504 279.291781,114.691 279.291781,114.878 L279.291781,114.878 Z M283.507781,111.019 L285.156781,107.092 L286.805781,111.019 L283.507781,111.019 Z M295.900781,114.793 C295.900781,115.524 296.478781,116.102 297.209781,116.102 C297.940781,116.102 298.518781,115.524 298.518781,114.793 L298.518781,106.514 L301.034781,106.514 C301.697781,106.514 302.241781,105.97 302.241781,105.307 C302.241781,104.644 301.697781,104.1 301.034781,104.1 L293.384781,104.1 C292.721781,104.1 292.177781,104.644 292.177781,105.307 C292.177781,105.97 292.721781,106.514 293.384781,106.514 L295.900781,106.514 L295.900781,114.793 Z M309.925781,116.204 C313.597781,116.204 316.266781,113.433 316.266781,110.05 L316.266781,110.016 C316.266781,106.633 313.631781,103.896 309.959781,103.896 C306.287781,103.896 303.618781,106.667 303.618781,110.05 L303.618781,110.084 C303.618781,113.467 306.253781,116.204 309.925781,116.204 L309.925781,116.204 Z M309.959781,113.79 C307.851781,113.79 306.355781,112.09 306.355781,110.05 L306.355781,110.016 C306.355781,107.976 307.817781,106.31 309.925781,106.31 C312.033781,106.31 313.529781,108.01 313.529781,110.05 L313.529781,110.084 C313.529781,112.124 312.067781,113.79 309.959781,113.79 L309.959781,113.79 Z M309.874781,103.097 C310.452781,103.097 310.860781,102.995 311.353781,102.536 L312.407781,101.55 C312.611781,101.363 312.747781,101.176 312.747781,100.938 C312.747781,100.547 311.931781,100.156 311.302781,100.156 C310.877781,100.156 310.554781,100.377 310.333781,100.734 L309.398781,102.196 C309.313781,102.332 309.228781,102.502 309.228781,102.655 C309.228781,102.927 309.500781,103.097 309.874781,103.097 L309.874781,103.097 Z M318.595781,114.81 C318.595781,115.524 319.173781,116.102 319.887781,116.102 C320.601781,116.102 321.179781,115.524 321.179781,114.81 L321.179781,108.435 L326.415781,115.303 C326.772781,115.762 327.146781,116.068 327.775781,116.068 L327.860781,116.068 C328.591781,116.068 329.169781,115.49 329.169781,114.759 L329.169781,105.29 C329.169781,104.576 328.591781,103.998 327.877781,103.998 C327.163781,103.998 326.585781,104.576 326.585781,105.29 L326.585781,111.427 L321.536781,104.797 C321.179781,104.338 320.805781,104.032 320.176781,104.032 L319.904781,104.032 C319.173781,104.032 318.595781,104.61 318.595781,105.341 L318.595781,114.81 Z M337.125781,114.691 C337.125781,115.422 337.703781,116 338.434781,116 L341.766781,116 C345.506781,116 348.090781,113.399 348.090781,110.05 L348.090781,110.016 C348.090781,106.667 345.506781,104.1 341.766781,104.1 L338.434781,104.1 C337.703781,104.1 337.125781,104.678 337.125781,105.409 L337.125781,114.691 Z M339.743781,113.637 L339.743781,106.463 L341.766781,106.463 C343.908781,106.463 345.353781,107.942 345.353781,110.05 L345.353781,110.084 C345.353781,112.192 343.908781,113.637 341.766781,113.637 L339.743781,113.637 Z M351.728781,116 L358.409781,116 C359.055781,116 359.582781,115.49 359.582781,114.844 C359.582781,114.198 359.055781,113.671 358.409781,113.671 L353.020781,113.671 L353.020781,111.172 L357.559781,111.172 C358.205781,111.172 358.732781,110.662 358.732781,110.016 C358.732781,109.37 358.205781,108.843 357.559781,108.843 L353.020781,108.843 L353.020781,106.429 L358.324781,106.429 C358.970781,106.429 359.497781,105.919 359.497781,105.273 C359.497781,104.627 358.970781,104.1 358.324781,104.1 L351.728781,104.1 C350.997781,104.1 350.419781,104.678 350.419781,105.409 L350.419781,114.691 C350.419781,115.422 350.997781,116 351.728781,116 L351.728781,116 Z M367.028781,114.793 C367.028781,115.524 367.606781,116.102 368.337781,116.102 C369.068781,116.102 369.646781,115.524 369.646781,114.793 L369.646781,105.307 C369.646781,104.576 369.068781,103.998 368.337781,103.998 C367.606781,103.998 367.028781,104.576 367.028781,105.307 L367.028781,114.793 Z M372.621781,114.81 C372.621781,115.524 373.199781,116.102 373.913781,116.102 C374.627781,116.102 375.205781,115.524 375.205781,114.81 L375.205781,108.435 L380.441781,115.303 C380.798781,115.762 381.172781,116.068 381.801781,116.068 L381.886781,116.068 C382.617781,116.068 383.195781,115.49 383.195781,114.759 L383.195781,105.29 C383.195781,104.576 382.617781,103.998 381.903781,103.998 C381.189781,103.998 380.611781,104.576 380.611781,105.29 L380.611781,111.427 L375.562781,104.797 C375.205781,104.338 374.831781,104.032 374.202781,104.032 L373.930781,104.032 C373.199781,104.032 372.621781,104.61 372.621781,105.341 L372.621781,114.81 Z M386.051781,114.81 C386.051781,115.524 386.629781,116.102 387.343781,116.102 C388.057781,116.102 388.635781,115.524 388.635781,114.81 L388.635781,108.435 L393.871781,115.303 C394.228781,115.762 394.602781,116.068 395.231781,116.068 L395.316781,116.068 C396.047781,116.068 396.625781,115.49 396.625781,114.759 L396.625781,105.29 C396.625781,104.576 396.047781,103.998 395.333781,103.998 C394.619781,103.998 394.041781,104.576 394.041781,105.29 L394.041781,111.427 L388.992781,104.797 C388.635781,104.338 388.261781,104.032 387.632781,104.032 L387.360781,104.032 C386.629781,104.032 386.051781,104.61 386.051781,105.341 L386.051781,114.81 Z M405.261781,116.204 C408.933781,116.204 411.602781,113.433 411.602781,110.05 L411.602781,110.016 C411.602781,106.633 408.967781,103.896 405.295781,103.896 C401.623781,103.896 398.954781,106.667 398.954781,110.05 L398.954781,110.084 C398.954781,113.467 401.589781,116.204 405.261781,116.204 L405.261781,116.204 Z M405.295781,113.79 C403.187781,113.79 401.691781,112.09 401.691781,110.05 L401.691781,110.016 C401.691781,107.976 403.153781,106.31 405.261781,106.31 C407.369781,106.31 408.865781,108.01 408.865781,110.05 L408.865781,110.084 C408.865781,112.124 407.403781,113.79 405.295781,113.79 L405.295781,113.79 Z M418.589781,116.187 L418.759781,116.187 C419.473781,116.187 419.966781,115.796 420.238781,115.15 L424.131781,105.834 C424.199781,105.681 424.267781,105.46 424.267781,105.256 C424.267781,104.542 423.689781,103.998 422.975781,103.998 C422.346781,103.998 421.887781,104.406 421.717781,104.831 L418.708781,112.617 L415.733781,104.916 C415.529781,104.389 415.087781,103.998 414.407781,103.998 C413.676781,103.998 413.098781,104.559 413.098781,105.29 C413.098781,105.511 413.166781,105.715 413.251781,105.919 L417.110781,115.15 C417.382781,115.796 417.875781,116.187 418.589781,116.187 L418.589781,116.187 Z M425.457781,114.878 C425.457781,115.558 425.984781,116.102 426.664781,116.102 C427.208781,116.102 427.650781,115.796 427.871781,115.286 L428.704781,113.331 L433.940781,113.331 L434.739781,115.201 C434.977781,115.745 435.385781,116.102 435.997781,116.102 C436.694781,116.102 437.238781,115.541 437.238781,114.844 C437.238781,114.674 437.187781,114.504 437.102781,114.317 L432.954781,104.95 C432.665781,104.304 432.155781,103.913 431.441781,103.913 L431.288781,103.913 C430.574781,103.913 430.047781,104.304 429.758781,104.95 L425.610781,114.317 C425.525781,114.504 425.457781,114.691 425.457781,114.878 L425.457781,114.878 Z M429.673781,111.019 L431.322781,107.092 L432.971781,111.019 L429.673781,111.019 Z M444.871781,116.204 C446.775781,116.204 448.033781,115.643 449.104781,114.708 C449.342781,114.504 449.546781,114.181 449.546781,113.773 C449.546781,113.11 448.985781,112.566 448.322781,112.566 C448.016781,112.566 447.744781,112.685 447.540781,112.855 C446.792781,113.45 446.061781,113.79 444.956781,113.79 C442.916781,113.79 441.505781,112.09 441.505781,110.05 L441.505781,110.016 C441.505781,107.976 442.950781,106.31 444.956781,106.31 C445.891781,106.31 446.656781,106.616 447.387781,107.16 C447.574781,107.279 447.812781,107.415 448.169781,107.415 C448.883781,107.415 449.461781,106.854 449.461781,106.14 C449.461781,105.681 449.223781,105.307 448.951781,105.103 C447.965781,104.372 446.758781,103.896 444.973781,103.896 C441.318781,103.896 438.768781,106.667 438.768781,110.05 L438.768781,110.084 C438.768781,113.501 441.369781,116.204 444.871781,116.204 L444.871781,116.204 Z M451.960781,114.793 C451.960781,115.524 452.538781,116.102 453.269781,116.102 C454.000781,116.102 454.578781,115.524 454.578781,114.793 L454.578781,105.307 C454.578781,104.576 454.000781,103.998 453.269781,103.998 C452.538781,103.998 451.960781,104.576 451.960781,105.307 L451.960781,114.793 Z M463.333781,116.204 C467.005781,116.204 469.674781,113.433 469.674781,110.05 L469.674781,110.016 C469.674781,106.633 467.039781,103.896 463.367781,103.896 C459.695781,103.896 457.026781,106.667 457.026781,110.05 L457.026781,110.084 C457.026781,113.467 459.661781,116.204 463.333781,116.204 L463.333781,116.204 Z M463.367781,113.79 C461.259781,113.79 459.763781,112.09 459.763781,110.05 L459.763781,110.016 C459.763781,107.976 461.225781,106.31 463.333781,106.31 C465.441781,106.31 466.937781,108.01 466.937781,110.05 L466.937781,110.084 C466.937781,112.124 465.475781,113.79 463.367781,113.79 L463.367781,113.79 Z M463.282781,103.097 C463.860781,103.097 464.268781,102.995 464.761781,102.536 L465.815781,101.55 C466.019781,101.363 466.155781,101.176 466.155781,100.938 C466.155781,100.547 465.339781,100.156 464.710781,100.156 C464.285781,100.156 463.962781,100.377 463.741781,100.734 L462.806781,102.196 C462.721781,102.332 462.636781,102.502 462.636781,102.655 C462.636781,102.927 462.908781,103.097 463.282781,103.097 L463.282781,103.097 Z M472.003781,114.81 C472.003781,115.524 472.581781,116.102 473.295781,116.102 C474.009781,116.102 474.587781,115.524 474.587781,114.81 L474.587781,108.435 L479.823781,115.303 C480.180781,115.762 480.554781,116.068 481.183781,116.068 L481.268781,116.068 C481.999781,116.068 482.577781,115.49 482.577781,114.759 L482.577781,105.29 C482.577781,104.576 481.999781,103.998 481.285781,103.998 C480.571781,103.998 479.993781,104.576 479.993781,105.29 L479.993781,111.427 L474.944781,104.797 C474.587781,104.338 474.213781,104.032 473.584781,104.032 L473.312781,104.032 C472.581781,104.032 472.003781,104.61 472.003781,105.341 L472.003781,114.81 Z M490.533781,114.793 C490.533781,115.524 491.111781,116.102 491.842781,116.102 C492.573781,116.102 493.151781,115.524 493.151781,114.793 L493.151781,112.43 L495.140781,112.43 C497.809781,112.43 499.951781,111.002 499.951781,108.248 L499.951781,108.214 C499.951781,105.783 498.234781,104.1 495.395781,104.1 L491.842781,104.1 C491.111781,104.1 490.533781,104.678 490.533781,105.409 L490.533781,114.793 Z M493.151781,110.101 L493.151781,106.463 L495.174781,106.463 C496.483781,106.463 497.299781,107.092 497.299781,108.265 L497.299781,108.299 C497.299781,109.319 496.534781,110.101 495.225781,110.101 L493.151781,110.101 Z M506.853781,116.187 C510.049781,116.187 512.072781,114.419 512.072781,110.815 L512.072781,105.307 C512.072781,104.576 511.494781,103.998 510.763781,103.998 C510.032781,103.998 509.454781,104.576 509.454781,105.307 L509.454781,110.917 C509.454781,112.804 508.485781,113.773 506.887781,113.773 C505.289781,113.773 504.320781,112.77 504.320781,110.832 L504.320781,105.307 C504.320781,104.576 503.742781,103.998 503.011781,103.998 C502.280781,103.998 501.702781,104.576 501.702781,105.307 L501.702781,110.9 C501.702781,114.402 503.657781,116.187 506.853781,116.187 L506.853781,116.187 Z M506.819781,103.267 C507.397781,103.267 507.805781,103.165 508.298781,102.706 L509.352781,101.72 C509.556781,101.533 509.692781,101.346 509.692781,101.108 C509.692781,100.717 508.876781,100.326 508.247781,100.326 C507.822781,100.326 507.499781,100.547 507.278781,100.904 L506.343781,102.366 C506.258781,102.502 506.173781,102.672 506.173781,102.825 C506.173781,103.097 506.445781,103.267 506.819781,103.267 L506.819781,103.267 Z M514.741781,114.691 C514.741781,115.422 515.319781,116 516.050781,116 L520.402781,116 C523.088781,116 524.856781,114.912 524.856781,112.736 L524.856781,112.702 C524.856781,111.104 524.006781,110.305 522.629781,109.778 C523.479781,109.302 524.193781,108.554 524.193781,107.211 L524.193781,107.177 C524.193781,106.361 523.921781,105.698 523.377781,105.154 C522.697781,104.474 521.626781,104.1 520.266781,104.1 L516.050781,104.1 C515.319781,104.1 514.741781,104.678 514.741781,105.409 L514.741781,114.691 Z M517.291781,108.911 L517.291781,106.395 L519.875781,106.395 C520.980781,106.395 521.592781,106.837 521.592781,107.619 L521.592781,107.653 C521.592781,108.537 520.861781,108.911 519.705781,108.911 L517.291781,108.911 Z M517.291781,113.705 L517.291781,111.087 L520.317781,111.087 C521.660781,111.087 522.255781,111.58 522.255781,112.379 L522.255781,112.413 C522.255781,113.297 521.558781,113.705 520.402781,113.705 L517.291781,113.705 Z M527.015781,114.691 C527.015781,115.422 527.593781,116 528.324781,116 L534.478781,116 C535.141781,116 535.668781,115.473 535.668781,114.81 C535.668781,114.147 535.141781,113.62 534.478781,113.62 L529.633781,113.62 L529.633781,105.307 C529.633781,104.576 529.055781,103.998 528.324781,103.998 C527.593781,103.998 527.015781,104.576 527.015781,105.307 L527.015781,114.691 Z M537.657781,114.793 C537.657781,115.524 538.235781,116.102 538.966781,116.102 C539.697781,116.102 540.275781,115.524 540.275781,114.793 L540.275781,105.307 C540.275781,104.576 539.697781,103.998 538.966781,103.998 C538.235781,103.998 537.657781,104.576 537.657781,105.307 L537.657781,114.793 Z M548.826781,116.204 C550.730781,116.204 551.988781,115.643 553.059781,114.708 C553.297781,114.504 553.501781,114.181 553.501781,113.773 C553.501781,113.11 552.940781,112.566 552.277781,112.566 C551.971781,112.566 551.699781,112.685 551.495781,112.855 C550.747781,113.45 550.016781,113.79 548.911781,113.79 C546.871781,113.79 545.460781,112.09 545.460781,110.05 L545.460781,110.016 C545.460781,107.976 546.905781,106.31 548.911781,106.31 C549.846781,106.31 550.611781,106.616 551.342781,107.16 C551.529781,107.279 551.767781,107.415 552.124781,107.415 C552.838781,107.415 553.416781,106.854 553.416781,106.14 C553.416781,105.681 553.178781,105.307 552.906781,105.103 C551.920781,104.372 550.713781,103.896 548.928781,103.896 C545.273781,103.896 542.723781,106.667 542.723781,110.05 L542.723781,110.084 C542.723781,113.501 545.324781,116.204 548.826781,116.204 L548.826781,116.204 Z M554.980781,114.878 C554.980781,115.558 555.507781,116.102 556.187781,116.102 C556.731781,116.102 557.173781,115.796 557.394781,115.286 L558.227781,113.331 L563.463781,113.331 L564.262781,115.201 C564.500781,115.745 564.908781,116.102 565.520781,116.102 C566.217781,116.102 566.761781,115.541 566.761781,114.844 C566.761781,114.674 566.710781,114.504 566.625781,114.317 L562.477781,104.95 C562.188781,104.304 561.678781,103.913 560.964781,103.913 L560.811781,103.913 C560.097781,103.913 559.570781,104.304 559.281781,104.95 L555.133781,114.317 C555.048781,114.504 554.980781,114.691 554.980781,114.878 L554.980781,114.878 Z M559.196781,111.019 L560.845781,107.092 L562.494781,111.019 L559.196781,111.019 Z" id="Claim" filter="url(#filter-1)" sketch:type="MSShapeGroup"></path>
        </g>
    </g>
</svg>