<?xml version="1.0" encoding="UTF-8" standalone="no"?>
<svg width="388px" height="138px" viewBox="0 0 388 138" version="1.1" xmlns="http://www.w3.org/2000/svg" xmlns:xlink="http://www.w3.org/1999/xlink" xmlns:sketch="http://www.bohemiancoding.com/sketch/ns">
    <!-- Generator: Sketch 3.3 (11970) - http://www.bohemiancoding.com/sketch -->
    <title>logo-ciudad_abierta-claim-mobile</title>
    <desc>Created with Sketch.</desc>
    <defs>
        <filter x="-50%" y="-50%" width="200%" height="200%" filterUnits="objectBoundingBox" id="filter-1">
            <feOffset dx="0" dy="2" in="SourceAlpha" result="shadowOffsetOuter1"></feOffset>
            <feGaussianBlur stdDeviation="1" in="shadowOffsetOuter1" result="shadowBlurOuter1"></feGaussianBlur>
            <feColorMatrix values="0 0 0 0 0   0 0 0 0 0   0 0 0 0 0  0 0 0 0.35 0" in="shadowBlurOuter1" type="matrix" result="shadowMatrixOuter1"></feColorMatrix>
            <feMerge>
                <feMergeNode in="shadowMatrixOuter1"></feMergeNode>
                <feMergeNode in="SourceGraphic"></feMergeNode>
            </feMerge>
        </filter>
    </defs>
    <g id="Website" stroke="none" stroke-width="1" fill="none" fill-rule="evenodd" sketch:type="MSPage">
        <g id="logo-ciudad_abierta-claim-mobile" sketch:type="MSLayerGroup" transform="translate(1.000000, 0.000000)" fill="#FFFFFF">
            <path d="M0.504,97.866 L13.122,69.371 C14.001,67.406 15.604,66.216 17.777,66.216 L18.242,66.216 C20.414,66.216 21.965,67.406 22.845,69.371 L35.462,97.866 C35.721,98.434 35.877,98.951 35.877,99.468 C35.877,101.589 34.221,103.296 32.102,103.296 C30.239,103.296 28.998,102.209 28.275,100.555 L25.844,94.866 L9.916,94.866 L7.382,100.813 C6.71,102.365 5.365,103.296 3.71,103.296 C1.642,103.296 0.038,101.64 0.038,99.572 C0.038,99.003 0.245,98.434 0.504,97.866 L0.504,97.866 Z M22.897,87.833 L17.88,75.887 L12.864,87.833 L22.897,87.833 L22.897,87.833 Z" id="Fill-1" sketch:type="MSShapeGroup"></path>
            <path d="M52.475,70.767 C52.475,68.543 54.234,66.785 56.457,66.785 L69.283,66.785 C73.42,66.785 76.678,67.923 78.747,69.991 C80.401,71.646 81.229,73.663 81.229,76.146 L81.229,76.248 C81.229,80.334 79.057,82.61 76.471,84.058 C80.66,85.661 83.246,88.091 83.246,92.952 L83.246,93.056 C83.246,99.675 77.867,102.985 69.696,102.985 L56.457,102.985 C54.234,102.985 52.475,101.227 52.475,99.003 L52.475,70.767 L52.475,70.767 Z M67.576,81.42 C71.092,81.42 73.316,80.282 73.316,77.593 L73.316,77.49 C73.316,75.111 71.455,73.766 68.093,73.766 L60.232,73.766 L60.232,81.42 L67.576,81.42 L67.576,81.42 Z M69.696,96.004 C73.213,96.004 75.333,94.762 75.333,92.073 L75.333,91.97 C75.333,89.539 73.523,88.04 69.438,88.04 L60.232,88.04 L60.232,96.004 L69.696,96.004 L69.696,96.004 Z" id="Fill-2" sketch:type="MSShapeGroup"></path>
            <path d="M100.516,70.457 C100.516,68.233 102.274,66.475 104.498,66.475 C106.722,66.475 108.48,68.233 108.48,70.457 L108.48,99.314 C108.48,101.537 106.722,103.296 104.498,103.296 C102.274,103.296 100.516,101.537 100.516,99.314 L100.516,70.457" id="Fill-3" sketch:type="MSShapeGroup"></path>
            <path d="M127.872,99.003 L127.872,70.767 C127.872,68.543 129.631,66.785 131.854,66.785 L151.92,66.785 C153.885,66.785 155.488,68.388 155.488,70.353 C155.488,72.318 153.885,73.87 151.92,73.87 L135.785,73.87 L135.785,81.213 L149.593,81.213 C151.558,81.213 153.161,82.816 153.161,84.782 C153.161,86.747 151.558,88.298 149.593,88.298 L135.785,88.298 L135.785,95.9 L152.178,95.9 C154.144,95.9 155.747,97.503 155.747,99.468 C155.747,101.433 154.144,102.985 152.178,102.985 L131.854,102.985 C129.631,102.985 127.872,101.227 127.872,99.003" id="Fill-4" sketch:type="MSShapeGroup"></path>
            <path d="M229.024,74.129 L221.37,74.129 C219.353,74.129 217.698,72.473 217.698,70.457 C217.698,68.44 219.353,66.785 221.37,66.785 L244.641,66.785 C246.658,66.785 248.313,68.44 248.313,70.457 C248.313,72.473 246.658,74.129 244.641,74.129 L236.988,74.129 L236.988,99.314 C236.988,101.537 235.229,103.296 233.006,103.296 C230.782,103.296 229.024,101.537 229.024,99.314 L229.024,74.129" id="Fill-5" sketch:type="MSShapeGroup"></path>
            <path d="M258.551,97.866 L271.17,69.371 C272.049,67.406 273.653,66.216 275.824,66.216 L276.29,66.216 C278.462,66.216 280.013,67.406 280.893,69.371 L293.511,97.866 C293.769,98.434 293.924,98.951 293.924,99.468 C293.924,101.589 292.27,103.296 290.149,103.296 C288.288,103.296 287.046,102.209 286.323,100.555 L283.892,94.866 L267.964,94.866 L265.43,100.813 C264.757,102.365 263.413,103.296 261.758,103.296 C259.69,103.296 258.086,101.64 258.086,99.572 C258.086,99.003 258.293,98.434 258.551,97.866 L258.551,97.866 Z M280.944,87.833 L275.928,75.887 L270.911,87.833 L280.944,87.833 L280.944,87.833 Z" id="Fill-6" sketch:type="MSShapeGroup"></path>
            <path d="M203.064,78.834 L203.064,78.731 C203.064,75.318 201.978,72.473 199.961,70.457 C197.582,68.078 194.014,66.785 189.411,66.785 L179.978,66.785 C180.119,69.204 180.397,71.576 180.696,73.973 L188.739,73.973 C192.618,73.973 194.997,75.731 194.997,79.145 L194.997,79.248 C194.997,82.299 192.773,84.368 188.894,84.368 L177.235,84.368 C177.243,84.708 177.127,85.046 176.859,85.272 C175.828,86.14 174.767,86.971 173.788,87.898 C173.498,88.172 173.173,88.273 172.863,88.256 L172.863,99.314 C172.863,101.537 174.621,103.296 176.845,103.296 C179.069,103.296 180.827,101.537 180.827,99.314 L180.827,91.401 L187.188,91.401 L194.945,101.227 C195.876,102.416 197.065,103.296 198.875,103.296 C200.789,103.296 202.65,101.848 202.65,99.624 C202.65,98.383 202.133,97.555 201.357,96.573 L195.824,89.85 C200.22,88.04 203.064,84.523 203.064,78.834" id="Fill-7" sketch:type="MSShapeGroup"></path>
            <path d="M172.863,94.215 C172.863,96.348 174.608,98.093 176.741,98.093 L176.948,98.093 C179.081,98.093 180.827,96.348 180.827,94.215 L180.827,88.251 C180.827,86.118 179.081,84.372 176.948,84.372 L176.741,84.372 C174.608,84.372 172.863,86.118 172.863,88.251 L172.863,94.215" id="Fill-8" sketch:type="MSShapeGroup"></path>
            <path d="M184.631,73.973 C186.765,73.973 188.51,72.356 188.51,70.379 C188.51,68.402 186.765,66.785 184.631,66.785 L176.741,66.785 C174.608,66.785 172.863,68.402 172.863,70.379 C172.863,72.356 174.608,73.973 176.741,73.973 L184.631,73.973" id="Fill-9" sketch:type="MSShapeGroup"></path>
            <path d="M126.872,22.527 L126.872,22.424 C126.872,12.133 134.629,3.704 145.748,3.704 C151.178,3.704 154.849,5.151 157.849,7.375 C158.676,7.996 159.4,9.133 159.4,10.529 C159.4,12.702 157.642,14.408 155.47,14.408 C154.384,14.408 153.66,13.995 153.091,13.633 C150.867,11.978 148.54,11.047 145.696,11.047 C139.593,11.047 135.198,16.115 135.198,22.321 L135.198,22.424 C135.198,28.63 139.491,33.801 145.696,33.801 C149.057,33.801 151.281,32.767 153.556,30.957 C154.177,30.44 155.005,30.078 155.935,30.078 C157.953,30.078 159.659,31.732 159.659,33.749 C159.659,34.99 159.038,35.973 158.314,36.594 C155.056,39.438 151.23,41.145 145.437,41.145 C134.784,41.145 126.872,32.922 126.872,22.527" id="Fill-10" sketch:type="MSShapeGroup"></path>
            <path d="M177.344,7.996 C177.344,5.772 179.102,4.014 181.326,4.014 C183.549,4.014 185.308,5.772 185.308,7.996 L185.308,36.853 C185.308,39.076 183.549,40.835 181.326,40.835 C179.102,40.835 177.344,39.076 177.344,36.853 L177.344,7.996" id="Fill-11" sketch:type="MSShapeGroup"></path>
            <path d="M204.131,25.009 L204.131,7.996 C204.131,5.772 205.89,4.014 208.113,4.014 C210.337,4.014 212.095,5.772 212.095,7.996 L212.095,24.803 C212.095,30.699 215.043,33.749 219.904,33.749 C224.765,33.749 227.712,30.802 227.712,25.061 L227.712,7.996 C227.712,5.772 229.471,4.014 231.695,4.014 C233.919,4.014 235.677,5.772 235.677,7.996 L235.677,24.751 C235.677,35.714 229.523,41.093 219.8,41.093 C210.079,41.093 204.131,35.663 204.131,25.009" id="Fill-12" sketch:type="MSShapeGroup"></path>
            <path d="M268.256,4.324 L258.119,4.324 C256.307,4.324 254.805,5.492 254.31,7.128 C254.918,7.177 255.517,7.587 255.573,8.362 C255.663,9.623 257.871,9.944 258.859,10.167 C260.594,10.558 262.322,10.737 264.097,10.786 C264.663,10.802 265.032,11.113 265.214,11.512 L268.256,11.512 C274.772,11.512 279.167,16.011 279.167,22.424 L279.167,22.527 C279.167,28.94 274.772,33.336 268.256,33.336 L262.101,33.336 L262.101,25.807 C259.452,26.364 256.798,26.254 254.137,25.899 L254.137,36.542 C254.137,38.766 255.896,40.524 258.119,40.524 L268.256,40.524 C279.633,40.524 287.493,32.612 287.493,22.424 L287.493,22.321 C287.493,12.133 279.633,4.324 268.256,4.324" id="Fill-13" sketch:type="MSShapeGroup"></path>
            <path d="M301.352,35.405 L313.97,6.91 C314.849,4.945 316.452,3.755 318.625,3.755 L319.09,3.755 C321.262,3.755 322.813,4.945 323.693,6.91 L336.311,35.405 C336.569,35.973 336.725,36.49 336.725,37.007 C336.725,39.128 335.069,40.835 332.95,40.835 C331.087,40.835 329.846,39.748 329.123,38.094 L326.692,32.405 L310.764,32.405 L308.23,38.352 C307.558,39.904 306.213,40.835 304.558,40.835 C302.49,40.835 300.886,39.18 300.886,37.111 C300.886,36.542 301.093,35.973 301.352,35.405 L301.352,35.405 Z M323.745,25.372 L318.728,13.426 L313.712,25.372 L323.745,25.372 L323.745,25.372 Z" id="Fill-14" sketch:type="MSShapeGroup"></path>
            <path d="M254.137,29.319 C254.137,31.452 255.883,33.197 258.016,33.197 L258.223,33.197 C260.356,33.197 262.101,31.452 262.101,29.319 L262.101,23.355 C262.101,21.222 260.356,19.477 258.223,19.477 L258.016,19.477 C255.883,19.477 254.137,21.222 254.137,23.355 L254.137,29.319" id="Fill-15" sketch:type="MSShapeGroup"></path>
            <path d="M353.323,21.355 C353.323,23.488 355.068,25.233 357.202,25.233 L357.409,25.233 C359.542,25.233 361.287,23.488 361.287,21.355 L361.287,15.391 C361.287,13.258 359.542,11.512 357.409,11.512 L357.202,11.512 C355.068,11.512 353.323,13.258 353.323,15.391 L353.323,21.355" id="Fill-16" sketch:type="MSShapeGroup"></path>
            <path d="M265.906,11.512 C268.039,11.512 269.785,9.895 269.785,7.918 C269.785,5.941 268.039,4.324 265.906,4.324 L258.016,4.324 C255.883,4.324 254.137,5.941 254.137,7.918 C254.137,9.895 255.883,11.512 258.016,11.512 L265.906,11.512" id="Fill-17" sketch:type="MSShapeGroup"></path>
            <path d="M367.441,4.324 L357.305,4.324 C355.082,4.324 353.323,6.082 353.323,8.306 L353.323,19.125 C355.923,18.89 358.705,19.017 361.287,19.485 L361.287,11.512 L367.441,11.512 C373.958,11.512 378.353,16.011 378.353,22.424 L378.353,22.527 C378.353,28.94 373.958,33.336 367.441,33.336 L363.54,33.336 C363.569,35.724 363.761,38.133 363.697,40.524 L367.441,40.524 C378.819,40.524 386.679,32.612 386.679,22.424 L386.679,22.321 C386.679,12.133 378.819,4.324 367.441,4.324" id="Fill-18" sketch:type="MSShapeGroup"></path>
            <path d="M365.092,40.524 C367.225,40.524 368.97,38.907 368.97,36.93 C368.97,34.953 367.225,33.336 365.092,33.336 L357.202,33.336 C355.068,33.336 353.323,34.953 353.323,36.93 C353.323,38.907 355.068,40.524 357.202,40.524 L365.092,40.524" id="Fill-19" sketch:type="MSShapeGroup"></path>
            <path d="M42.887,51.97 C42.25,52.606 41.216,52.606 40.579,51.97 C40.26,51.651 40.101,51.233 40.101,50.819 L40.101,44.712 C40.101,43.955 39.488,43.342 38.726,43.342 C38.488,43.342 38.258,43.404 38.062,43.513 C37.765,43.695 37.461,43.863 37.145,44.017 L35.939,44.602 C32.77,45.967 29.271,46.72 25.599,46.72 L6.575,46.72 C2.964,46.72 0.038,43.793 0.038,40.182 L0.038,7.443 C0.038,3.832 2.964,0.905 6.575,0.905 L24.174,0.905 C28.023,0.905 31.65,1.852 34.839,3.524 L34.839,3.521 C38.448,5.392 40.916,9.16 40.916,13.505 C40.916,17.256 39.08,20.578 36.251,22.621 C39.104,23.733 41.415,25.935 42.667,28.713 L54.918,5.059 C56.356,2.193 59.316,0.227 62.74,0.227 C66.162,0.227 69.126,2.193 70.563,5.059 L70.559,5.062 L87.275,37.339 L87.278,37.339 C87.816,38.286 88.121,39.384 88.121,40.555 C88.121,44.163 85.197,47.09 81.586,47.09 C78.935,47.09 76.656,45.516 75.625,43.247 C75.095,42.006 73.863,41.132 72.423,41.132 L54.293,41.132 C53.943,41.132 53.592,41.263 53.326,41.532 L42.887,51.97" id="Fill-20" sketch:type="MSShapeGroup"></path>
            <path d="M1.032026,133.218248 C1.032026,133.714961 1.4223005,134.105235 1.9190135,134.105235 C2.4157265,134.105235 2.8178275,133.714961 2.8178275,133.218248 L2.8178275,129.102626 L4.390752,131.527058 C4.579976,131.810894 4.816506,131.988292 5.147648,131.988292 C5.47879,131.988292 5.71532,131.810894 5.904544,131.527058 L7.5011215,129.067146 L7.5011215,133.194595 C7.5011215,133.691308 7.9032225,134.105235 8.3999355,134.105235 C8.908475,134.105235 9.310576,133.703134 9.310576,133.194595 L9.310576,126.619061 C9.310576,126.110521 8.908475,125.70842 8.3999355,125.70842 L8.198885,125.70842 C7.8322635,125.70842 7.5720805,125.862165 7.3828565,126.169654 L5.171301,129.76491 L2.971572,126.18148 C2.806001,125.909471 2.5339915,125.70842 2.143717,125.70842 L1.9426665,125.70842 C1.434127,125.70842 1.032026,126.110521 1.032026,126.619061 L1.032026,133.218248 Z M10.929756,133.253727 C10.929756,133.726787 11.2963775,134.105235 11.7694375,134.105235 C12.1478855,134.105235 12.4553745,133.892358 12.609119,133.537563 L13.1886175,132.177516 L16.8311795,132.177516 L17.387025,133.478431 C17.552596,133.856879 17.836432,134.105235 18.262186,134.105235 C18.7470725,134.105235 19.1255205,133.714961 19.1255205,133.230074 C19.1255205,133.111809 19.090041,132.993544 19.0309085,132.863453 L16.1452425,126.347051 C15.944192,125.897644 15.589397,125.625635 15.092684,125.625635 L14.9862455,125.625635 C14.4895325,125.625635 14.122911,125.897644 13.9218605,126.347051 L11.0361945,132.863453 C10.977062,132.993544 10.929756,133.123636 10.929756,133.253727 L10.929756,133.253727 Z M13.862728,130.569112 L15.0098985,127.83719 L16.157069,130.569112 L13.862728,130.569112 Z M20.756527,133.194595 C20.756527,133.703134 21.158628,134.105235 21.6671675,134.105235 C22.175707,134.105235 22.577808,133.703134 22.577808,133.194595 L22.577808,131.38514 L24.0324675,131.38514 L25.8064425,133.632175 C26.0193195,133.904185 26.291329,134.105235 26.7052565,134.105235 C27.142837,134.105235 27.568591,133.774093 27.568591,133.265554 C27.568591,132.981718 27.450326,132.792494 27.2729285,132.56779 L26.007493,131.030345 C27.0127455,130.616418 27.663203,129.812216 27.663203,128.511301 L27.663203,128.487648 C27.663203,127.707099 27.4148465,127.056641 26.953613,126.595408 C26.409594,126.051389 25.5935655,125.755726 24.541007,125.755726 L21.6671675,125.755726 C21.158628,125.755726 20.756527,126.157827 20.756527,126.666367 L20.756527,133.194595 Z M22.577808,129.776736 L22.577808,127.39961 L24.3872625,127.39961 C25.27425,127.39961 25.818269,127.801711 25.818269,128.58226 L25.818269,128.605913 C25.818269,129.303676 25.3097295,129.776736 24.422742,129.776736 L22.577808,129.776736 Z M28.9394145,133.253727 C28.9394145,133.726787 29.306036,134.105235 29.779096,134.105235 C30.157544,134.105235 30.465033,133.892358 30.6187775,133.537563 L31.198276,132.177516 L34.840838,132.177516 L35.3966835,133.478431 C35.5622545,133.856879 35.8460905,134.105235 36.2718445,134.105235 C36.756731,134.105235 37.135179,133.714961 37.135179,133.230074 C37.135179,133.111809 37.0996995,132.993544 37.040567,132.863453 L34.154901,126.347051 C33.9538505,125.897644 33.5990555,125.625635 33.1023425,125.625635 L32.995904,125.625635 C32.499191,125.625635 32.1325695,125.897644 31.931519,126.347051 L29.045853,132.863453 C28.9867205,132.993544 28.9394145,133.123636 28.9394145,133.253727 L28.9394145,133.253727 Z M31.8723865,130.569112 L33.019557,127.83719 L34.1667275,130.569112 L31.8723865,130.569112 Z M39.8069175,133.194595 C39.8069175,133.703134 40.2090185,134.105235 40.717558,134.105235 C41.2260975,134.105235 41.6281985,133.703134 41.6281985,133.194595 L41.6281985,127.435089 L43.3785205,127.435089 C43.839754,127.435089 44.218202,127.056641 44.218202,126.595408 C44.218202,126.134174 43.839754,125.755726 43.3785205,125.755726 L38.0565955,125.755726 C37.595362,125.755726 37.216914,126.134174 37.216914,126.595408 C37.216914,127.056641 37.595362,127.435089 38.0565955,127.435089 L39.8069175,127.435089 L39.8069175,133.194595 Z M49.408985,134.176194 C51.963509,134.176194 53.8202695,132.248475 53.8202695,129.895001 L53.8202695,129.871348 C53.8202695,127.517875 51.987162,125.613808 49.432638,125.613808 C46.878114,125.613808 45.0213535,127.541528 45.0213535,129.895001 L45.0213535,129.918654 C45.0213535,132.272128 46.854461,134.176194 49.408985,134.176194 L49.408985,134.176194 Z M49.432638,132.496831 C47.966152,132.496831 46.92542,131.314181 46.92542,129.895001 L46.92542,129.871348 C46.92542,128.452168 47.942499,127.293171 49.408985,127.293171 C50.875471,127.293171 51.916203,128.475821 51.916203,129.895001 L51.916203,129.918654 C51.916203,131.337834 50.899124,132.496831 49.432638,132.496831 L49.432638,132.496831 Z M49.3735055,125.057963 C49.7756065,125.057963 50.0594425,124.987004 50.402411,124.667688 L51.135654,123.981751 C51.277572,123.85166 51.372184,123.721568 51.372184,123.555997 C51.372184,123.283988 50.804512,123.011978 50.3669315,123.011978 C50.071269,123.011978 49.8465655,123.165723 49.692821,123.414079 L49.0423635,124.431158 C48.983231,124.52577 48.9240985,124.644035 48.9240985,124.750474 C48.9240985,124.939698 49.1133225,125.057963 49.3735055,125.057963 L49.3735055,125.057963 Z M55.6405,133.206421 C55.6405,133.703134 56.042601,134.105235 56.539314,134.105235 C57.036027,134.105235 57.438128,133.703134 57.438128,133.206421 L57.438128,128.771484 L61.08069,133.54939 C61.3290465,133.868705 61.5892295,134.081582 62.02681,134.081582 L62.0859425,134.081582 C62.594482,134.081582 62.996583,133.679481 62.996583,133.170942 L62.996583,126.583581 C62.996583,126.086868 62.594482,125.684767 62.097769,125.684767 C61.601056,125.684767 61.198955,126.086868 61.198955,126.583581 L61.198955,130.852948 L57.6864845,126.240613 C57.438128,125.921297 57.177945,125.70842 56.7403645,125.70842 L56.5511405,125.70842 C56.042601,125.70842 55.6405,126.110521 55.6405,126.619061 L55.6405,133.206421 Z M68.931385,133.123636 C68.931385,133.632175 69.333486,134.034276 69.8420255,134.034276 L72.1600195,134.034276 C74.7618495,134.034276 76.5594775,132.224822 76.5594775,129.895001 L76.5594775,129.871348 C76.5594775,127.541528 74.7618495,125.755726 72.1600195,125.755726 L69.8420255,125.755726 C69.333486,125.755726 68.931385,126.157827 68.931385,126.666367 L68.931385,133.123636 Z M70.752666,132.390393 L70.752666,127.39961 L72.1600195,127.39961 C73.6501585,127.39961 74.655411,128.428515 74.655411,129.895001 L74.655411,129.918654 C74.655411,131.38514 73.6501585,132.390393 72.1600195,132.390393 L70.752666,132.390393 Z M79.2903485,134.034276 L83.938163,134.034276 C84.38757,134.034276 84.7541915,133.679481 84.7541915,133.230074 C84.7541915,132.780667 84.38757,132.414046 83.938163,132.414046 L80.1891625,132.414046 L80.1891625,130.67555 L83.346838,130.67555 C83.796245,130.67555 84.1628665,130.320755 84.1628665,129.871348 C84.1628665,129.421941 83.796245,129.05532 83.346838,129.05532 L80.1891625,129.05532 L80.1891625,127.375957 L83.8790305,127.375957 C84.3284375,127.375957 84.695059,127.021162 84.695059,126.571755 C84.695059,126.122348 84.3284375,125.755726 83.8790305,125.755726 L79.2903485,125.755726 C78.781809,125.755726 78.379708,126.157827 78.379708,126.666367 L78.379708,133.123636 C78.379708,133.632175 78.781809,134.034276 79.2903485,134.034276 L79.2903485,134.034276 Z M90.3341985,133.194595 C90.3341985,133.703134 90.7362995,134.105235 91.244839,134.105235 C91.7533785,134.105235 92.1554795,133.703134 92.1554795,133.194595 L92.1554795,126.595408 C92.1554795,126.086868 91.7533785,125.684767 91.244839,125.684767 C90.7362995,125.684767 90.3341985,126.086868 90.3341985,126.595408 L90.3341985,133.194595 Z M94.425117,133.206421 C94.425117,133.703134 94.827218,134.105235 95.323931,134.105235 C95.820644,134.105235 96.222745,133.703134 96.222745,133.206421 L96.222745,128.771484 L99.865307,133.54939 C100.113664,133.868705 100.373847,134.081582 100.811427,134.081582 L100.87056,134.081582 C101.379099,134.081582 101.7812,133.679481 101.7812,133.170942 L101.7812,126.583581 C101.7812,126.086868 101.379099,125.684767 100.882386,125.684767 C100.385673,125.684767 99.983572,126.086868 99.983572,126.583581 L99.983572,130.852948 L96.4711015,126.240613 C96.222745,125.921297 95.962562,125.70842 95.5249815,125.70842 L95.3357575,125.70842 C94.827218,125.70842 94.425117,126.110521 94.425117,126.619061 L94.425117,133.206421 Z M103.968052,133.206421 C103.968052,133.703134 104.370153,134.105235 104.866866,134.105235 C105.363579,134.105235 105.76568,133.703134 105.76568,133.206421 L105.76568,128.771484 L109.408242,133.54939 C109.656599,133.868705 109.916782,134.081582 110.354362,134.081582 L110.413495,134.081582 C110.922034,134.081582 111.324135,133.679481 111.324135,133.170942 L111.324135,126.583581 C111.324135,126.086868 110.922034,125.684767 110.425321,125.684767 C109.928608,125.684767 109.526507,126.086868 109.526507,126.583581 L109.526507,130.852948 L106.014037,126.240613 C105.76568,125.921297 105.505497,125.70842 105.067917,125.70842 L104.878693,125.70842 C104.370153,125.70842 103.968052,126.110521 103.968052,126.619061 L103.968052,133.206421 Z M117.531997,134.176194 C120.086521,134.176194 121.943282,132.248475 121.943282,129.895001 L121.943282,129.871348 C121.943282,127.517875 120.110174,125.613808 117.55565,125.613808 C115.001126,125.613808 113.144366,127.541528 113.144366,129.895001 L113.144366,129.918654 C113.144366,132.272128 114.977473,134.176194 117.531997,134.176194 L117.531997,134.176194 Z M117.55565,132.496831 C116.089164,132.496831 115.048432,131.314181 115.048432,129.895001 L115.048432,129.871348 C115.048432,128.452168 116.065511,127.293171 117.531997,127.293171 C118.998483,127.293171 120.039215,128.475821 120.039215,129.895001 L120.039215,129.918654 C120.039215,131.337834 119.022136,132.496831 117.55565,132.496831 L117.55565,132.496831 Z M126.708311,134.164368 L126.826576,134.164368 C127.323289,134.164368 127.666257,133.892358 127.855481,133.442951 L130.56375,126.962029 C130.611056,126.855591 130.658362,126.701846 130.658362,126.559928 C130.658362,126.063215 130.256261,125.684767 129.759548,125.684767 C129.321967,125.684767 129.002652,125.968603 128.884387,126.264266 L126.791096,131.680803 L124.721459,126.323398 C124.579541,125.956777 124.272052,125.684767 123.798992,125.684767 C123.290452,125.684767 122.888351,126.075042 122.888351,126.583581 C122.888351,126.737326 122.935657,126.879244 122.99479,127.021162 L125.679405,133.442951 C125.868629,133.892358 126.211598,134.164368 126.708311,134.164368 L126.708311,134.164368 Z M130.858362,133.253727 C130.858362,133.726787 131.224983,134.105235 131.698043,134.105235 C132.076491,134.105235 132.38398,133.892358 132.537725,133.537563 L133.117223,132.177516 L136.759785,132.177516 L137.315631,133.478431 C137.481202,133.856879 137.765038,134.105235 138.190792,134.105235 C138.675678,134.105235 139.054126,133.714961 139.054126,133.230074 C139.054126,133.111809 139.018647,132.993544 138.959514,132.863453 L136.073848,126.347051 C135.872798,125.897644 135.518003,125.625635 135.02129,125.625635 L134.914851,125.625635 C134.418138,125.625635 134.051517,125.897644 133.850466,126.347051 L130.9648,132.863453 C130.905668,132.993544 130.858362,133.123636 130.858362,133.253727 L130.858362,133.253727 Z M133.791334,130.569112 L134.938504,127.83719 L136.085675,130.569112 L133.791334,130.569112 Z M144.268562,134.176194 C145.59313,134.176194 146.468291,133.78592 147.213361,133.135462 C147.378932,132.993544 147.52085,132.768841 147.52085,132.485005 C147.52085,132.023771 147.130575,131.645323 146.669342,131.645323 C146.456465,131.645323 146.267241,131.728109 146.125323,131.846374 C145.604957,132.260301 145.096417,132.496831 144.327695,132.496831 C142.908515,132.496831 141.926915,131.314181 141.926915,129.895001 L141.926915,129.871348 C141.926915,128.452168 142.932168,127.293171 144.327695,127.293171 C144.978152,127.293171 145.510345,127.506048 146.018884,127.884496 C146.148976,127.967282 146.314547,128.061894 146.562903,128.061894 C147.059616,128.061894 147.461717,127.671619 147.461717,127.174906 C147.461717,126.855591 147.296146,126.595408 147.106922,126.45349 C146.420985,125.94495 145.581304,125.613808 144.339521,125.613808 C141.796824,125.613808 140.022849,127.541528 140.022849,129.895001 L140.022849,129.918654 C140.022849,132.295781 141.832303,134.176194 144.268562,134.176194 L144.268562,134.176194 Z M149.400213,133.194595 C149.400213,133.703134 149.802314,134.105235 150.310853,134.105235 C150.819393,134.105235 151.221494,133.703134 151.221494,133.194595 L151.221494,126.595408 C151.221494,126.086868 150.819393,125.684767 150.310853,125.684767 C149.802314,125.684767 149.400213,126.086868 149.400213,126.595408 L149.400213,133.194595 Z M157.512141,134.176194 C160.066665,134.176194 161.923426,132.248475 161.923426,129.895001 L161.923426,129.871348 C161.923426,127.517875 160.090318,125.613808 157.535794,125.613808 C154.98127,125.613808 153.12451,127.541528 153.12451,129.895001 L153.12451,129.918654 C153.12451,132.272128 154.957617,134.176194 157.512141,134.176194 L157.512141,134.176194 Z M157.535794,132.496831 C156.069308,132.496831 155.028576,131.314181 155.028576,129.895001 L155.028576,129.871348 C155.028576,128.452168 156.045655,127.293171 157.512141,127.293171 C158.978627,127.293171 160.019359,128.475821 160.019359,129.895001 L160.019359,129.918654 C160.019359,131.337834 159.00228,132.496831 157.535794,132.496831 L157.535794,132.496831 Z M157.476662,125.057963 C157.878763,125.057963 158.162599,124.987004 158.505567,124.667688 L159.23881,123.981751 C159.380728,123.85166 159.47534,123.721568 159.47534,123.555997 C159.47534,123.283988 158.907668,123.011978 158.470088,123.011978 C158.174425,123.011978 157.949722,123.165723 157.795977,123.414079 L157.14552,124.431158 C157.086387,124.52577 157.027255,124.644035 157.027255,124.750474 C157.027255,124.939698 157.216479,125.057963 157.476662,125.057963 L157.476662,125.057963 Z M163.743656,133.206421 C163.743656,133.703134 164.145757,134.105235 164.64247,134.105235 C165.139183,134.105235 165.541284,133.703134 165.541284,133.206421 L165.541284,128.771484 L169.183846,133.54939 C169.432203,133.868705 169.692386,134.081582 170.129966,134.081582 L170.189099,134.081582 C170.697638,134.081582 171.099739,133.679481 171.099739,133.170942 L171.099739,126.583581 C171.099739,126.086868 170.697638,125.684767 170.200925,125.684767 C169.704212,125.684767 169.302111,126.086868 169.302111,126.583581 L169.302111,130.852948 L165.789641,126.240613 C165.541284,125.921297 165.281101,125.70842 164.843521,125.70842 L164.654297,125.70842 C164.145757,125.70842 163.743656,126.110521 163.743656,126.619061 L163.743656,133.206421 Z M177.034541,133.194595 C177.034541,133.703134 177.436642,134.105235 177.945181,134.105235 C178.453721,134.105235 178.855822,133.703134 178.855822,133.194595 L178.855822,131.550711 L180.239522,131.550711 C182.096283,131.550711 183.586422,130.557285 183.586422,128.641392 L183.586422,128.617739 C183.586422,126.92655 182.391945,125.755726 180.41692,125.755726 L177.945181,125.755726 C177.436642,125.755726 177.034541,126.157827 177.034541,126.666367 L177.034541,133.194595 Z M178.855822,129.930481 L178.855822,127.39961 L180.263175,127.39961 C181.173816,127.39961 181.741488,127.83719 181.741488,128.653219 L181.741488,128.676872 C181.741488,129.386462 181.209295,129.930481 180.298655,129.930481 L178.855822,129.930481 Z M188.587981,134.164368 C190.811363,134.164368 192.218717,132.934412 192.218717,130.427194 L192.218717,126.595408 C192.218717,126.086868 191.816616,125.684767 191.308076,125.684767 C190.799537,125.684767 190.397436,126.086868 190.397436,126.595408 L190.397436,130.498153 C190.397436,131.810894 189.723325,132.485005 188.611634,132.485005 C187.499943,132.485005 186.825833,131.787241 186.825833,130.43902 L186.825833,126.595408 C186.825833,126.086868 186.423732,125.684767 185.915192,125.684767 C185.406653,125.684767 185.004552,126.086868 185.004552,126.595408 L185.004552,130.486326 C185.004552,132.922585 186.364599,134.164368 188.587981,134.164368 L188.587981,134.164368 Z M188.564328,125.176228 C188.966429,125.176228 189.250265,125.105269 189.593234,124.785953 L190.326477,124.100016 C190.468395,123.969925 190.563007,123.839833 190.563007,123.674262 C190.563007,123.402253 189.995335,123.130243 189.557754,123.130243 C189.262092,123.130243 189.037388,123.283988 188.883644,123.532344 L188.233186,124.549423 C188.174054,124.644035 188.114921,124.7623 188.114921,124.868739 C188.114921,125.057963 188.304145,125.176228 188.564328,125.176228 L188.564328,125.176228 Z M194.275477,133.123636 C194.275477,133.632175 194.677578,134.034276 195.186118,134.034276 L198.213702,134.034276 C200.082289,134.034276 201.312245,133.27738 201.312245,131.763588 L201.312245,131.739935 C201.312245,130.628244 200.72092,130.072399 199.762973,129.705777 C200.354298,129.374635 200.851011,128.854269 200.851011,127.919976 L200.851011,127.896323 C200.851011,127.328651 200.661787,126.867417 200.283339,126.488969 C199.810279,126.015909 199.06521,125.755726 198.11909,125.755726 L195.186118,125.755726 C194.677578,125.755726 194.275477,126.157827 194.275477,126.666367 L194.275477,133.123636 Z M196.049452,129.102626 L196.049452,127.352304 L197.84708,127.352304 C198.615803,127.352304 199.041557,127.659793 199.041557,128.203812 L199.041557,128.227465 C199.041557,128.842443 198.533017,129.102626 197.728815,129.102626 L196.049452,129.102626 Z M196.049452,132.437699 L196.049452,130.616418 L198.154569,130.616418 C199.088863,130.616418 199.50279,130.959386 199.50279,131.515232 L199.50279,131.538885 C199.50279,132.153863 199.017904,132.437699 198.213702,132.437699 L196.049452,132.437699 Z M203.01421,133.123636 C203.01421,133.632175 203.416311,134.034276 203.924851,134.034276 L208.206044,134.034276 C208.667277,134.034276 209.033899,133.667655 209.033899,133.206421 C209.033899,132.745188 208.667277,132.378566 208.206044,132.378566 L204.835491,132.378566 L204.835491,126.595408 C204.835491,126.086868 204.43339,125.684767 203.924851,125.684767 C203.416311,125.684767 203.01421,126.086868 203.01421,126.595408 L203.01421,133.123636 Z M210.617599,133.194595 C210.617599,133.703134 211.0197,134.105235 211.52824,134.105235 C212.036779,134.105235 212.43888,133.703134 212.43888,133.194595 L212.43888,126.595408 C212.43888,126.086868 212.036779,125.684767 211.52824,125.684767 C211.0197,125.684767 210.617599,126.086868 210.617599,126.595408 L210.617599,133.194595 Z M218.58761,134.176194 C219.912178,134.176194 220.787339,133.78592 221.532408,133.135462 C221.697979,132.993544 221.839897,132.768841 221.839897,132.485005 C221.839897,132.023771 221.449623,131.645323 220.988389,131.645323 C220.775512,131.645323 220.586288,131.728109 220.44437,131.846374 C219.924004,132.260301 219.415465,132.496831 218.646742,132.496831 C217.227562,132.496831 216.245963,131.314181 216.245963,129.895001 L216.245963,129.871348 C216.245963,128.452168 217.251215,127.293171 218.646742,127.293171 C219.2972,127.293171 219.829392,127.506048 220.337932,127.884496 C220.468023,127.967282 220.633594,128.061894 220.881951,128.061894 C221.378664,128.061894 221.780765,127.671619 221.780765,127.174906 C221.780765,126.855591 221.615194,126.595408 221.42597,126.45349 C220.740033,125.94495 219.900351,125.613808 218.658569,125.613808 C216.115871,125.613808 214.341896,127.541528 214.341896,129.895001 L214.341896,129.918654 C214.341896,132.295781 216.151351,134.176194 218.58761,134.176194 L218.58761,134.176194 Z M223.068803,133.253727 C223.068803,133.726787 223.435424,134.105235 223.908484,134.105235 C224.286932,134.105235 224.594421,133.892358 224.748166,133.537563 L225.327664,132.177516 L228.970226,132.177516 L229.526072,133.478431 C229.691643,133.856879 229.975479,134.105235 230.401233,134.105235 C230.886119,134.105235 231.264567,133.714961 231.264567,133.230074 C231.264567,133.111809 231.229088,132.993544 231.169955,132.863453 L228.284289,126.347051 C228.083239,125.897644 227.728444,125.625635 227.231731,125.625635 L227.125292,125.625635 C226.628579,125.625635 226.261958,125.897644 226.060907,126.347051 L223.175241,132.863453 C223.116109,132.993544 223.068803,133.123636 223.068803,133.253727 L223.068803,133.253727 Z M226.001775,130.569112 L227.148945,127.83719 L228.296116,130.569112 L226.001775,130.569112 Z" id="maratón-de-innovación-pública" filter="url(#filter-1)" sketch:type="MSShapeGroup"></path>
        </g>
    </g>
</svg>